<?xml version="1.0" encoding="utf-8"?>
<!-- Generator: Adobe Illustrator 21.0.0, SVG Export Plug-In . SVG Version: 6.00 Build 0)  -->
<svg version="1.1" id="Layer_1" xmlns="http://www.w3.org/2000/svg" xmlns:xlink="http://www.w3.org/1999/xlink" x="0px" y="0px"
	 viewBox="0 0 187.6 214.7" style="enable-background:new 0 0 187.6 214.7;" xml:space="preserve">
<style type="text/css">
	.st0{fill:#F05A00;}
	.st1{fill:#FFFFFF;}
</style>
<title>logo</title>
<path class="st0" d="M125.6,94.5l-8.3,48.8c-1.7,8.8-7.5,11.2-12.6,11.2H66.2l16.2-89.3C66.2,57.8,49.7,53,36.6,53
	c-12.5,0-22.7,3.4-29.4,11.5C2.4,70.1,0,77.2,0,85.7c0,25.4,20,60.6,54.2,89.4c30.5,25.4,64,39.6,88.4,39.6c12.2,0,22-3.7,28.4-11.2
	c5.1-5.8,7.1-13.2,7.1-21.7C178.1,157.2,158,122.6,125.6,94.5z"/>
<path class="st1" d="M56.6,0C50.5,0,45.4,4.1,44,10.5L38.6,40H87L66.2,154.4h38.5c5.1,0,10.9-2.4,12.6-11.2L134.9,40h34.8
	c6.2,0,11.5-4.4,12.5-10.5L187.6,0H56.6z"/>
</svg>
