<svg id="Layer_1" data-name="Layer 1" xmlns="http://www.w3.org/2000/svg" viewBox="0 0 187.6 214.7"><defs>
  <style>.logo-1{fill:#f05a00;}.logo-2{fill:#9e043e;}</style></defs><title>logo</title>
  <path class="logo-1" d="M125.6,94.5l-8.3,48.8c-1.7,8.8-7.5,11.2-12.6,11.2H66.2L82.4,65.2C66.2,57.8,49.7,53,36.6,53,24.1,53,13.9,56.4,7.2,64.5,2.4,70.1,0,77.2,0,85.7c0,25.4,20,60.6,54.2,89.4,30.5,25.4,64,39.6,88.4,39.6,12.2,0,22-3.7,28.4-11.2,5.1-5.8,7.1-13.2,7.1-21.7C178.1,157.2,158,122.6,125.6,94.5Z"/>
  <path class="logo-2" d="M56.6,0C50.5,0,45.4,4.1,44,10.5L38.6,40H87L66.2,154.4h38.5c5.1,0,10.9-2.4,12.6-11.2L134.9,40h34.8a12.62,12.62,0,0,0,12.5-10.5L187.6,0Z"/>
</svg>