<?xml version="1.0" encoding="utf-8"?>
<!-- Generator: Adobe Illustrator 20.1.0, SVG Export Plug-In . SVG Version: 6.00 Build 0)  -->
<svg version="1.1" id="Grey" xmlns="http://www.w3.org/2000/svg" xmlns:xlink="http://www.w3.org/1999/xlink" x="0px" y="0px"
	 viewBox="0 0 127.6 127.6" style="enable-background:new 0 0 127.6 127.6;" xml:space="preserve">
<title>icon_facebook</title>
<path d="M63.8,127.6C28.6,127.6,0,99,0,63.8C0,28.6,28.6,0,63.8,0s63.8,28.6,63.8,63.8c0,16.9-6.7,33.1-18.7,45.1
	C96.9,120.9,80.7,127.6,63.8,127.6z M63.8,5.6C31.7,5.6,5.6,31.7,5.6,63.8s26.1,58.2,58.2,58.2c32.1,0,58.2-26,58.2-58.2
	C121.9,31.7,95.9,5.6,63.8,5.6z"/>
<path d="M68.5,99.1H55.6c-2.3,0-4.2-1.9-4.2-4.2V68h-2.1c-2.3,0-4.2-1.9-4.2-4.2V53.3c0-2.3,1.9-4.2,4.2-4.2h2.1v-4.4
	c0-4.8,1.4-8.7,4.3-11.6c3.1-3.1,7.5-4.7,13.1-4.7h9.5c2.3,0,4.2,1.9,4.2,4.2v10.9c0,2.3-1.9,4.2-4.2,4.2h-5.6V49h5.6
	c2.3,0,4.2,1.9,4.2,4.2c0,0.1,0,0.2,0,0.3c-0.4,5.4-1.2,10.3-1.2,10.9c-0.3,2-2.1,3.6-4.2,3.5h-4.4v26.9
	C72.7,97.2,70.8,99.1,68.5,99.1z M57,93.4h10.1V65.1c0-1.5,1.3-2.8,2.8-2.8h6c0.2-1.6,0.6-4.5,0.9-7.7h-6.9c-1.5,0-2.8-1.3-2.8-2.8
	v-5.7c0-0.1,0-0.2,0-0.3c0.4-2,2.1-3.5,4.2-3.6h5.6v-8.1h-8.1c-4.1,0-7.2,1-9.1,3c-1.8,1.8-2.7,4.3-2.7,7.6v7.2
	c0,1.5-1.3,2.8-2.8,2.8h-3.5v7.7h3.5c1.5,0,2.8,1.3,2.8,2.8L57,93.4z"/>
</svg>
