<svg id="Layer_1" data-name="Layer 1" xmlns="http://www.w3.org/2000/svg" viewBox="0 0 127.56 127.56"><title>icon_ambient</title><path d="M502.4,628.89c-15-4.85-23.12-21.38-18.2-37a30.09,30.09,0,0,1,12.21-16,.55.55,0,0,0-.33-1,32.14,32.14,0,0,0-23.89,23.9c-3.46,14.76,4,30.15,17.68,36.17a31,31,0,0,0,35-7.19c.43-.52-.13-1.23-.64-.87A28.29,28.29,0,0,1,502.4,628.89Z" transform="translate(-436.41 -543.39)"/><path d="M500.19,670.95A63.78,63.78,0,1,1,564,607.17,63.85,63.85,0,0,1,500.19,670.95Zm0-121.48a57.71,57.71,0,1,0,57.71,57.71A57.77,57.77,0,0,0,500.19,549.46Z" transform="translate(-436.41 -543.39)"/></svg>