<?xml version="1.0" encoding="utf-8"?>
<!-- Generator: Adobe Illustrator 21.0.1, SVG Export Plug-In . SVG Version: 6.00 Build 0)  -->
<svg version="1.1" id="Layer_1" xmlns="http://www.w3.org/2000/svg" xmlns:xlink="http://www.w3.org/1999/xlink" x="0px" y="0px"
	 viewBox="0 0 127.6 127.6" style="enable-background:new 0 0 127.6 127.6;" xml:space="preserve">
<path d="M63.8,0C28.6,0,0,28.6,0,63.8s28.6,63.8,63.8,63.8s63.8-28.6,63.8-63.8l0,0C127.5,28.6,99,0,63.8,0z M63.8,121.9
	c-32.1,0-58.2-26-58.2-58.2s26-58.2,58.2-58.2c32.1,0,58.2,26,58.2,58.2l0,0C121.9,95.9,95.9,121.9,63.8,121.9L63.8,121.9z"/>
<path d="M99.9,36.8h-72v46.3H52v12.8h23.7V83.1h24.2V36.8z M70.7,90.9H57v-7.8h13.7V90.9z M94.9,78.1H75.7H52H32.9V41.8h62V78.1z"/>
</svg>
