<?xml version="1.0" encoding="utf-8"?>
<svg version="1.1" xmlns="http://www.w3.org/2000/svg" xmlns:xlink="http://www.w3.org/1999/xlink" x="0px" y="0px"
	 viewBox="0 0 127.6 127.6" style="enable-background:new 0 0 127.6 127.6;" xml:space="preserve">
<path d="M63.8,0C28.6,0,0,28.6,0,63.8s28.6,63.8,63.8,63.8s63.8-28.6,63.8-63.8C127.5,28.6,99,0,63.8,0z M63.8,121.9
	c-32.1,0-58.2-26-58.2-58.2s26-58.2,58.2-58.2s58.2,26,58.2,58.2c0,0,0,0,0,0C121.9,95.9,95.9,121.9,63.8,121.9L63.8,121.9z"/>
<path d="M72.9,85.1h-38c0.8-17.3,9-26.1,24.5-26.1c8.7,0,15.1,2.8,19.2,8.2c0.1-0.5,0.2-1,0.4-1.4c0.5-1.5,1.7-2.6,3.1-3.1
	c-3-3.6-7-6.2-11.5-7.6c7.6-6.1,8.7-17.3,2.6-24.9c-6.1-7.6-17.3-8.7-24.9-2.6c-7.6,6.1-8.7,17.3-2.6,24.9c0.8,1,1.6,1.8,2.6,2.6
	c-12.4,4-19.1,15.3-19.1,32.8c0,1.6,1.3,2.8,2.8,2.8h41.5C72.3,89.2,72,87,72.9,85.1z M47.4,41.4c0-6.7,5.4-12.1,12.1-12.1
	c6.7,0,12.1,5.4,12.1,12.1s-5.4,12.1-12.1,12.1c0,0,0,0-0.1,0C52.8,53.4,47.4,48,47.4,41.4z"/>
<path d="M72.6,98.8c-2.6,0-4.7-2.1-4.7-4.7c0-0.5,0.1-1,0.2-1.4L71.9,81L62,73.9c-2.1-1.5-2.6-4.4-1.1-6.5c0.9-1.2,2.3-1.9,3.8-1.9
	H77l3.8-11.6c0.8-2.4,3.4-3.8,5.9-3c1.4,0.5,2.5,1.6,3,3l3.8,11.6h12.2c2.6,0,4.7,2.1,4.7,4.6c0,1.5-0.7,2.9-1.9,3.8l-9.9,7.2
	l3.8,11.6c0.8,2.5-0.6,5.1-3,5.9c-1.4,0.5-3,0.2-4.2-0.7l-9.9-7.2l-9.9,7.2C74.5,98.5,73.5,98.8,72.6,98.8z M67.6,71l10.8,7.9
	l-4.1,12.7l10.8-7.9L96,91.6l-4.1-12.7l10.8-7.9H89.3l-4.1-12.7L81,71H67.6z M105,69.3L105,69.3z"/>
</svg>
