<?xml version="1.0" encoding="utf-8"?>
<!-- Generator: Adobe Illustrator 21.1.0, SVG Export Plug-In . SVG Version: 6.00 Build 0)  -->
<svg version="1.1" id="Layer_1" xmlns="http://www.w3.org/2000/svg" xmlns:xlink="http://www.w3.org/1999/xlink" x="0px" y="0px"
	 viewBox="0 0 127.6 127.6" style="enable-background:new 0 0 127.6 127.6;" xml:space="preserve">
<title>icon_forum-right</title>
<path d="M1,64.4c0,16.9,6.6,32.9,18.6,44.8c12,12,27.9,18.6,44.8,18.6c16.9,0,32.9-6.6,44.8-18.6c12-12,18.6-27.9,18.6-44.8
	c0-16.9-6.6-32.9-18.6-44.8C97.3,7.6,81.3,1,64.4,1C47.5,1,31.5,7.6,19.6,19.6C7.6,31.5,1,47.5,1,64.4z M64.4,122.2
	c-7.4,0-14.5-1.4-21-4c0.9-10,9.4-17.9,19.7-17.9c10.6,0,19.2,8.4,19.7,18.8C77,121.1,70.8,122.2,64.4,122.2z M63.1,97.3
	c-5,0-9.1-4.1-9.1-9.1s4.1-9.1,9.1-9.1c5,0,9.1,4.1,9.1,9.1S68.1,97.3,63.1,97.3z M6.7,67.5h47.1c1.8,0,3.3-1.5,3.3-3.3V43.8
	c0-1.8-1.5-3.3-3.3-3.3h-42c9.1-20,29.3-33.9,52.6-33.9c31.9,0,57.8,25.9,57.8,57.8c0,24.3-15.1,45.2-36.5,53.7
	c-0.8-9.4-7.3-17.1-16-19.8c3.3-2.2,5.5-5.9,5.5-10.1c0-6.7-5.4-12.1-12.1-12.1c-6.7,0-12.1,5.4-12.1,12.1c0,4.2,2.2,7.9,5.5,10.1
	c-8.4,2.6-14.7,9.8-15.9,18.7C21.4,108.3,7.8,89.5,6.7,67.5z M33.7,43.1v21.7H15.8V43.1H33.7z M53.8,43.1c0.3,0,0.6,0.3,0.6,0.6
	v20.4c0,0.4-0.3,0.6-0.6,0.6H36.4V43.1H53.8z M6.6,64.8c0-0.1,0-0.3,0-0.4c0-7.5,1.5-14.7,4.1-21.2h2.5v21.7H6.6z"/>
</svg>
