<svg id="Grey" xmlns="http://www.w3.org/2000/svg" viewBox="0 0 147.24 102.45"><title>icon_dragndrop</title><path d="M1868.79,190.17v19.95H1760.68V190.17h108.11m1.86-6H1758.82a4.14,4.14,0,0,0-4.14,4.14V212a4.14,4.14,0,0,0,4.14,4.14h111.83a4.14,4.14,0,0,0,4.14-4.14V188.31a4.14,4.14,0,0,0-4.14-4.14Z" transform="translate(-1751.68 -113.68)"/><rect x="27.13" y="25.42" width="120.11" height="31.15" rx="4.14" ry="4.14"/><path d="M1768.17,151.62h-9.35a7.15,7.15,0,0,1-7.14-7.14V120.81a7.15,7.15,0,0,1,7.14-7.14h111.83a7.15,7.15,0,0,1,7.14,7.14v8.25h-6v-8.25a1.14,1.14,0,0,0-1.14-1.14H1758.82a1.14,1.14,0,0,0-1.14,1.14v23.67a1.14,1.14,0,0,0,1.14,1.14h9.35Z" transform="translate(-1751.68 -113.68)"/></svg>