<svg version="1.1" id="Grey" xmlns="http://www.w3.org/2000/svg" xmlns:xlink="http://www.w3.org/1999/xlink" x="0px" y="0px"
	 viewBox="0 0 127.6 127.6" style="enable-background:new 0 0 127.6 127.6;" xml:space="preserve">
<path d="M63.8,127.6C28.6,127.6,0,99,0,63.8S28.6,0,63.8,0c35.2,0,63.8,28.6,63.8,63.8C127.5,99,99,127.5,63.8,127.6z M63.8,6.1
	C31.9,6.1,6.1,31.9,6.1,63.8s25.8,57.7,57.7,57.7c31.9,0,57.7-25.8,57.7-57.7c0,0,0,0,0,0C121.5,31.9,95.6,6.1,63.8,6.1z"/>
<path d="M91.1,60.5H67.3V36.7c0-1.9-1.6-3.5-3.5-3.5s-3.5,1.6-3.5,3.5v23.8H36.5C34.6,60.5,33,62,33,64s1.6,3.5,3.5,3.5h23.8v23.8
	c0,1.9,1.6,3.5,3.5,3.5s3.5-1.6,3.5-3.5V67.5h23.8c1.9,0,3.5-1.6,3.5-3.5S93,60.5,91.1,60.5z"/>
</svg>
