<?xml version="1.0" encoding="utf-8"?>
<!-- Generator: Adobe Illustrator 20.0.0, SVG Export Plug-In . SVG Version: 6.00 Build 0)  -->
<svg version="1.1" id="Layer_1" xmlns="http://www.w3.org/2000/svg" xmlns:xlink="http://www.w3.org/1999/xlink" x="0px" y="0px"
	 viewBox="0 0 127.6 127.6" style="enable-background:new 0 0 127.6 127.6;" xml:space="preserve">
<title>icon_insight</title>
<path d="M108.9,18.7C84-6.2,43.7-6.2,18.8,18.6c0,0,0,0-0.1,0.1c-24.9,24.9-24.9,65.2-0.1,90.1c0,0,0,0,0.1,0.1
	c24.9,24.9,65.3,24.9,90.2,0S133.8,43.6,108.9,18.7C108.9,18.7,108.9,18.7,108.9,18.7z M63.8,122C31.7,122,5.6,95.9,5.6,63.8
	S31.7,5.6,63.8,5.6S122,31.7,122,63.8C122,95.9,95.9,122,63.8,122z"/>
<path d="M63.8,30.4C37.7,30.4,18,39.1,18,50.7v26.2c0,11.5,19.7,20.2,45.8,20.2s45.8-8.7,45.8-20.2V50.7
	C109.6,39.1,89.9,30.4,63.8,30.4z M63.8,91.9c-23.9,0-40.6-7.9-40.6-15c0-2.8,2.5-5.1,4.6-6.6c0.9-0.6,1.9-1.2,2.9-1.8
	c10.6,3.8,21.8,5.8,33.1,5.9c11.3-0.1,22.5-2.1,33.1-5.9c4.8,2.5,7.5,5.5,7.5,8.4C104.3,84,87.7,91.9,63.8,91.9z M38.3,65.4
	c8.3-2.4,16.9-3.6,25.5-3.5c8.6-0.1,17.2,1.1,25.5,3.5c-8.3,2.4-16.9,3.7-25.5,3.8C55.2,69.1,46.6,67.8,38.3,65.4z M104.3,67.2
	c-3.3-2.5-7-4.5-10.9-5.9c-8.2-3-18.7-4.6-29.7-4.6s-21.4,1.6-29.5,4.6c-3.4,1.2-6.6,2.8-9.5,4.8c-0.5,0.4-1,0.8-1.5,1.2V50.7
	c0-7.1,16.7-15,40.6-15s40.6,7.9,40.6,15L104.3,67.2L104.3,67.2z"/>
</svg>
