<svg xmlns="http://www.w3.org/2000/svg" viewBox="0 0 127.61 127.61"><title>icon_forum-left</title><path d="M26.43,52.05a128.14,128.14,0,0,1,15-3.59V34a102.42,102.42,0,0,0-15,4.57Z" transform="translate(0 0)" style="fill:none"/><path d="M21.43,40.65A103.25,103.25,0,0,0,7,48.65a58.51,58.51,0,0,0-1.91,12,128.58,128.58,0,0,1,16.35-7Z" transform="translate(0 0)" style="fill:none"/><path d="M46.43,47.69a129.7,129.7,0,0,1,15-1.16v-15a103.38,103.38,0,0,0-15,1.46Z" transform="translate(0 0)" style="fill:none"/><path d="M63.91,109.45c-8.41,0-13.76,3.69-16,11a58.51,58.51,0,0,0,32-.05C77.65,113.12,72.3,109.45,63.91,109.45Z" transform="translate(0 0)" style="fill:none"/><path d="M122.52,60.56a58.8,58.8,0,0,0-113-19.38,108,108,0,0,1,11.9-6q2.47-1.06,5-2a107.35,107.35,0,0,1,15-4.34q2.48-.53,5-.94a108.43,108.43,0,0,1,15-1.39c.83,0,1.66,0,2.5,0s1.67,0,2.5,0v25c-.83,0-1.66,0-2.5,0s-1.67,0-2.5,0a124.62,124.62,0,0,0-15,1.21q-2.52.36-5,.81a123.19,123.19,0,0,0-15,3.74q-2.52.8-5,1.7A123.67,123.67,0,0,0,5.06,66.35a58.91,58.91,0,0,0,39.07,52.87c2-6.38,6.06-10.65,11.95-12.56a12.43,12.43,0,1,1,15.65,0c5.87,1.9,9.92,6.14,11.93,12.49a58.91,58.91,0,0,0,38.88-52.93c0-.8.06-1.61.06-2.41C122.61,62.72,122.58,61.63,122.52,60.56Z" transform="translate(0 0)" style="fill:none"/><circle cx="63.91" cy="97.02" r="8.48" style="fill:none"/><path d="M127.6,63.3a64.13,64.13,0,0,0-1-10.53,63.8,63.8,0,0,0-124-7.23A63.39,63.39,0,0,0,.93,53,64.15,64.15,0,0,0,0,63.44c0,.12,0,.24,0,.37,0,1.79.09,3.55.24,5.3a63.83,63.83,0,0,0,42.83,55q1.88.65,3.82,1.18a63.76,63.76,0,0,0,34.06-.06q1.93-.54,3.81-1.19A63.83,63.83,0,0,0,127.39,69c.14-1.7.23-3.42.23-5.16C127.61,63.64,127.6,63.47,127.6,63.3ZM7,48.65a103.25,103.25,0,0,1,14.44-8v13a128.58,128.58,0,0,0-16.35,7A58.51,58.51,0,0,1,7,48.65Zm54.44-2.12a129.7,129.7,0,0,0-15,1.16V33a103.38,103.38,0,0,1,15-1.46Zm-20,1.93a128.14,128.14,0,0,0-15,3.59V38.54a102.42,102.42,0,0,1,15-4.57Zm22.38,74.15a58.62,58.62,0,0,1-15.92-2.21c2.27-7.27,7.62-11,16-11s13.73,3.67,16,10.9A58.61,58.61,0,0,1,63.81,122.61ZM55.43,97a8.48,8.48,0,1,1,8.48,8.48A8.49,8.49,0,0,1,55.43,97Zm28.24,22.14c-2-6.35-6.06-10.59-11.93-12.49a12.43,12.43,0,1,0-15.65,0c-5.89,1.91-9.94,6.17-11.95,12.56A58.91,58.91,0,0,1,5.06,66.35,123.67,123.67,0,0,1,21.43,59q2.48-.9,5-1.7a123.19,123.19,0,0,1,15-3.74q2.48-.46,5-.81a124.62,124.62,0,0,1,15-1.21c.83,0,1.66,0,2.5,0s1.67,0,2.5,0v-25c-.83,0-1.66,0-2.5,0s-1.67,0-2.5,0a108.43,108.43,0,0,0-15,1.39q-2.52.41-5,.94a107.35,107.35,0,0,0-15,4.34q-2.53.94-5,2a108,108,0,0,0-11.9,6,58.81,58.81,0,0,1,113,19.38c.06,1.08.09,2.16.09,3.25,0,.81,0,1.61-.06,2.41A58.91,58.91,0,0,1,83.67,119.15Z" transform="translate(0 0)"/></svg>