<svg xmlns="http://www.w3.org/2000/svg" viewBox="0 0 127.61 127.61"><title>icon_forum-right</title><path d="M127.6,63.3a64.13,64.13,0,0,0-1-10.53,63.8,63.8,0,0,0-124-7.23A63.39,63.39,0,0,0,.93,53,64.15,64.15,0,0,0,0,63.44c0,.12,0,.24,0,.37,0,1.79.09,3.55.24,5.3a63.83,63.83,0,0,0,42.83,55q1.88.65,3.82,1.18a63.76,63.76,0,0,0,34.06-.06q1.93-.54,3.81-1.19A63.83,63.83,0,0,0,127.39,69c.14-1.7.23-3.42.23-5.16C127.61,63.64,127.6,63.47,127.6,63.3Zm-5.08-2.74a128.55,128.55,0,0,0-16.09-6.87v-13a103.24,103.24,0,0,1,14.14,7.8A58.5,58.5,0,0,1,122.52,60.56ZM63.81,122.61a58.62,58.62,0,0,1-15.92-2.21c2.27-7.27,7.62-11,16-11s13.73,3.67,16,10.9A58.61,58.61,0,0,1,63.81,122.61ZM55.43,97a8.48,8.48,0,1,1,8.48,8.48A8.49,8.49,0,0,1,55.43,97Zm28.24,22.14c-2-6.35-6.06-10.59-11.93-12.49a12.43,12.43,0,1,0-15.65,0c-5.89,1.91-9.94,6.17-11.95,12.56A58.91,58.91,0,0,1,5.06,66.35C5,65.51,5,64.66,5,63.81c0-1,0-2.09.08-3.12A58.81,58.81,0,0,1,118,41a108,108,0,0,0-11.57-5.8q-2.47-1.06-5-2a107.34,107.34,0,0,0-15-4.34q-2.48-.53-5-.94a108.44,108.44,0,0,0-15-1.39c-.83,0-1.66,0-2.5,0s-1.67,0-2.5,0v25c.83,0,1.66,0,2.5,0s1.67,0,2.5,0a124.61,124.61,0,0,1,15,1.21q2.52.36,5,.81a123.19,123.19,0,0,1,15,3.74q2.52.8,5,1.7a123.67,123.67,0,0,1,16.12,7.23A58.91,58.91,0,0,1,83.67,119.15Zm17.76-80.61V52.05a128.18,128.18,0,0,0-15-3.59V34A102.41,102.41,0,0,1,101.43,38.54ZM81.43,33v14.7a129.68,129.68,0,0,0-15-1.16v-15A103.36,103.36,0,0,1,81.43,33Z" transform="translate(0 0)"/></svg>