<?xml version="1.0" encoding="utf-8"?>
<!-- Generator: Adobe Illustrator 21.1.0, SVG Export Plug-In . SVG Version: 6.00 Build 0)  -->
<svg version="1.1" id="Layer_1" xmlns="http://www.w3.org/2000/svg" xmlns:xlink="http://www.w3.org/1999/xlink" x="0px" y="0px"
	 viewBox="0 0 127.6 127.6" style="enable-background:new 0 0 127.6 127.6;" xml:space="preserve">
<title>icon_forum-left</title>
<path d="M108.3,18.6C96.3,6.6,80.4,0,63.4,0C46.5,0,30.6,6.6,18.6,18.6C6.6,30.5,0,46.5,0,63.4c0,16.9,6.6,32.9,18.6,44.8
	c12,12,27.9,18.6,44.8,18.6c16.9,0,32.9-6.6,44.8-18.6c12-12,18.6-27.9,18.6-44.8C126.8,46.5,120.2,30.5,108.3,18.6z M45,118.2
	c0.5-10.5,9.1-18.8,19.7-18.8c10.3,0,18.7,7.9,19.7,17.9c-6.5,2.5-13.6,4-21,4C57,121.2,50.8,120.1,45,118.2z M55.6,87.2
	c0-5,4.1-9.1,9.1-9.1c5,0,9.1,4.1,9.1,9.1s-4.1,9.1-9.1,9.1C59.7,96.3,55.6,92.3,55.6,87.2z M87.3,116c-1.2-8.9-7.5-16.1-15.9-18.7
	c3.3-2.2,5.5-5.9,5.5-10.1c0-6.7-5.4-12.1-12.1-12.1c-6.7,0-12.1,5.4-12.1,12.1c0,4.2,2.2,7.9,5.5,10.1c-8.7,2.7-15.2,10.4-16,19.8
	C20.7,108.6,5.6,87.7,5.6,63.4c0-31.9,25.9-57.8,57.8-57.8c23.4,0,43.5,13.9,52.6,33.9h-42c-1.8,0-3.3,1.5-3.3,3.3v20.4
	c0,1.8,1.5,3.3,3.3,3.3h47.1C120,88.5,106.4,107.3,87.3,116z M112,42.1v21.7H94.1V42.1H112z M91.4,42.1v21.7H74.1
	c-0.4,0-0.6-0.3-0.6-0.6V42.8c0-0.3,0.3-0.6,0.6-0.6H91.4z M114.7,63.8V42.1h2.5c2.6,6.6,4.1,13.7,4.1,21.2c0,0.1,0,0.3,0,0.4H114.7
	z"/>
</svg>
