<?xml version="1.0" encoding="utf-8"?>
<!-- Generator: Adobe Illustrator 21.0.1, SVG Export Plug-In . SVG Version: 6.00 Build 0)  -->
<svg version="1.1" id="Layer_1" xmlns="http://www.w3.org/2000/svg" xmlns:xlink="http://www.w3.org/1999/xlink" x="0px" y="0px"
	 viewBox="0 0 78.1 78.1" style="enable-background:new 0 0 78.1 78.1;" xml:space="preserve">
<title>icon_forward</title>
<path d="M66.6,11.4C59.3,4.1,49.5,0,39,0C28.6,0,18.8,4.1,11.4,11.4S0,28.6,0,39s4.1,20.2,11.4,27.6C18.8,74,28.6,78.1,39,78.1
	S59.2,74,66.6,66.7C74,59.3,78.1,49.5,78.1,39C78.1,28.6,74,18.8,66.6,11.4z M73.9,39c0,19.2-15.6,34.9-34.9,34.9S4.2,58.3,4.2,39
	C4.2,19.8,19.8,4.2,39,4.2C58.3,4.2,73.9,19.8,73.9,39z"/>
<path d="M26.2,59.7c-0.4,0-0.8-0.1-1.2-0.3c-1-0.5-1.7-1.5-1.7-2.8V21.4c0-1.2,0.6-2.3,1.7-2.8c1-0.5,2.2-0.3,3.2,0.5l20.2,17.6
	c1.3,1.1,1.6,3.2,0.4,4.6c-0.1,0.2-0.3,0.3-0.5,0.5L28.2,58.9C27.6,59.4,26.9,59.7,26.2,59.7z M28.4,25.9v26.3l15.2-13L28.4,25.9z
	 M45.1,40.4C45.1,40.4,45.1,40.5,45.1,40.4L45.1,40.4z M45.1,37.9L45.1,37.9L45.1,37.9z"/>
<path d="M51.5,20.9c-1.1,0-2,0.9-2,2v32.2c0,1.1,0.9,2,2,2s2-0.9,2-2V22.9C53.5,21.8,52.6,20.9,51.5,20.9z"/>
</svg>
