<?xml version="1.0" encoding="utf-8"?>
<!-- Generator: Adobe Illustrator 20.0.0, SVG Export Plug-In . SVG Version: 6.00 Build 0)  -->
<svg version="1.1" id="Grey" xmlns="http://www.w3.org/2000/svg" xmlns:xlink="http://www.w3.org/1999/xlink" x="0px" y="0px"
	 viewBox="0 0 127.6 127.6" style="enable-background:new 0 0 127.6 127.6;" xml:space="preserve">
<title>icon_pause</title>
<path d="M63.8,0C28.6,0,0,28.6,0,63.8c0,35.2,28.6,63.8,63.8,63.8c35.2,0,63.7-28.6,63.8-63.8C127.6,28.6,99,0,63.8,0z M63.8,121.5
	c-31.9,0-57.7-25.8-57.7-57.7c0-31.9,25.8-57.7,57.7-57.7v0c31.9,0,57.7,25.9,57.7,57.7C121.5,95.7,95.7,121.5,63.8,121.5z"/>
<path d="M51.1,94.8c-1.9,0-3.5-1.6-3.5-3.5V36.7c0-1.9,1.6-3.5,3.5-3.5s3.5,1.6,3.5,3.5v54.5C54.6,93.2,53.1,94.8,51.1,94.8z"/>
<path d="M76.4,94.8c-1.9,0-3.5-1.6-3.5-3.5V36.7c0-1.9,1.6-3.5,3.5-3.5s3.5,1.6,3.5,3.5v54.5C79.9,93.2,78.4,94.8,76.4,94.8z"/>
</svg>
