<?xml version="1.0" encoding="utf-8"?>
<svg version="1.1" xmlns="http://www.w3.org/2000/svg" xmlns:xlink="http://www.w3.org/1999/xlink" x="0px" y="0px"
	 viewBox="0 0 127.6 127.6" style="enable-background:new 0 0 127.6 127.6;" xml:space="preserve">
<path d="M63.8,0C28.6,0,0,28.6,0,63.8s28.6,63.8,63.8,63.8s63.8-28.6,63.8-63.8l0,0C127.5,28.6,99,0,63.8,0z M63.8,121.9
	c-32.1,0-58.2-26-58.2-58.2s26-58.2,58.2-58.2c32.1,0,58.2,26,58.2,58.2c0,0,0,0,0,0C121.9,95.9,95.9,121.9,63.8,121.9L63.8,121.9z"
	/>
<path d="M74.5,59.8c7.6-6.1,8.7-17.3,2.6-24.9c-6.1-7.6-17.3-8.7-24.9-2.6c-7.6,6.1-8.7,17.3-2.6,24.9c0.8,1,1.6,1.8,2.6,2.6
	c-12.4,4-19,15.3-19,32.8c0,1.6,1.3,2.8,2.8,2.8h54.8c1.5,0,2.8-1.3,2.8-2.8c0-0.2,0-0.4-0.1-0.6C93.4,74.8,86.8,63.8,74.5,59.8z
	 M51.4,46c0-6.7,5.4-12,12.1-12c6.7,0,12,5.4,12,12.1c0,6.6-5.4,12-12.1,12C56.8,58.1,51.4,52.7,51.4,46
	C51.4,46.1,51.4,46.1,51.4,46z M38.9,89.8c0.8-17.3,9-26.1,24.5-26.1s23.7,8.8,24.5,26.1H38.9z"/>
</svg>
