<?xml version="1.0" encoding="utf-8"?>
<!-- Generator: Adobe Illustrator 21.0.1, SVG Export Plug-In . SVG Version: 6.00 Build 0)  -->
<svg version="1.1" id="Layer_1" xmlns="http://www.w3.org/2000/svg" xmlns:xlink="http://www.w3.org/1999/xlink" x="0px" y="0px"
	 viewBox="0 0 74.3 68.2" style="enable-background:new 0 0 74.3 68.2;" xml:space="preserve">
<title>icon_list</title>
<path d="M46.9,41.5h-34c-2-0.1-3.8,1.5-3.9,3.5c-0.1,2,1.5,3.8,3.5,3.9c0.1,0,0.3,0,0.4,0h34c2,0.1,3.8-1.5,3.9-3.5
	c0.1-2-1.5-3.8-3.5-3.9C47.2,41.5,47.1,41.5,46.9,41.5z"/>
<path d="M61.4,23.6H12.9c-2,0-3.7,1.6-3.7,3.7s1.6,3.7,3.7,3.7h48.5c2,0,3.7-1.6,3.7-3.7S63.4,23.6,61.4,23.6z"/>
<path d="M61.4,59.1H12.9c-2,0-3.7,1.6-3.7,3.7c0,2,1.6,3.7,3.7,3.7h48.5c2,0,3.7-1.6,3.7-3.7C65.1,60.8,63.4,59.1,61.4,59.1z"/>
<path d="M61.4,5.8H12.9c-2,0-3.7,1.6-3.7,3.7s1.6,3.7,3.7,3.7h48.5c2,0,3.7-1.6,3.7-3.7S63.4,5.8,61.4,5.8z"/>
</svg>
