<?xml version="1.0" encoding="utf-8"?>
<!-- Generator: Adobe Illustrator 20.0.0, SVG Export Plug-In . SVG Version: 6.00 Build 0)  -->
<svg version="1.1" id="Grey" xmlns="http://www.w3.org/2000/svg" xmlns:xlink="http://www.w3.org/1999/xlink" x="0px" y="0px"
	 viewBox="0 0 127.6 127.6" style="enable-background:new 0 0 127.6 127.6;" xml:space="preserve">
<title>icon_play</title>
<path d="M63.8,0C28.6,0,0,28.6,0,63.8s28.6,63.8,63.8,63.8c35.2,0,63.7-28.6,63.8-63.8C127.6,28.6,99,0,63.8,0z M63.8,121.5
	c-31.9,0-57.7-25.8-57.7-57.7c0-31.9,25.8-57.7,57.7-57.7c31.9,0,57.7,25.9,57.7,57.7c0,0,0,0,0,0C121.5,95.7,95.7,121.5,63.8,121.5
	z"/>
<path d="M54,94.1c-1.7,0-3-1.3-3-3V36.5c-0.1-1.7,1.3-3,2.9-3.1c0.9,0,1.7,0.3,2.3,0.9l27.3,27.3c1.2,1.2,1.2,3.1,0,4.2c0,0,0,0,0,0
	L56.2,93.2C55.7,93.8,54.9,94.2,54,94.1z M57,43.8v40l20-20L57,43.8z"/>
</svg>
