<svg data-name="Layer 1" xmlns="http://www.w3.org/2000/svg" viewBox="0 0 127.56 127.56">
  <title>icon_favourites</title>
  <path d="M63.78,0a63.78,63.78,0,1,0,63.78,63.78A63.85,63.85,0,0,0,63.78,0Zm0,121.94a58.16,58.16,0,1,1,58.17-58.16A58.23,58.23,0,0,1,63.78,121.94Z"/><path d="M88.58,45.7a17,17,0,0,0-12-5.43A15.8,15.8,0,0,0,65.9,44.54c-.94.86-1.48,1.36-2.12,2.06-.64-.7-1.18-1.2-2.12-2.06A15.8,15.8,0,0,0,51,40.27,17,17,0,0,0,39,45.7,17.47,17.47,0,0,0,34,59.39a22.6,22.6,0,0,0,6.79,14.47c7.52,7.52,20.6,16.39,21.38,16.92v0a2.81,2.81,0,0,0,1.57.48h0a2.81,2.81,0,0,0,1.57-.48v0c.78-.53,13.86-9.4,21.38-16.92a22.6,22.6,0,0,0,6.79-14.47A17.47,17.47,0,0,0,88.58,45.7ZM87.93,59a17,17,0,0,1-5.16,10.85C77.64,75,63.79,85,63.79,85h0s-13.85-10-19-15.15A17,17,0,0,1,39.63,59a11.94,11.94,0,0,1,3.32-9.37A11.54,11.54,0,0,1,51,45.89a10.4,10.4,0,0,1,7,3,26.38,26.38,0,0,1,3.58,3.88,2.73,2.73,0,0,0,1.89.95h0l.26,0,.26,0h0a2.73,2.73,0,0,0,1.89-.95,26.37,26.37,0,0,1,3.58-3.88,10.4,10.4,0,0,1,7-3,11.54,11.54,0,0,1,8.07,3.79A11.94,11.94,0,0,1,87.93,59Z"/>
</svg>