<?xml version="1.0" encoding="utf-8"?>
<!-- Generator: Adobe Illustrator 21.0.1, SVG Export Plug-In . SVG Version: 6.00 Build 0)  -->
<svg version="1.1" id="Layer_1" xmlns="http://www.w3.org/2000/svg" xmlns:xlink="http://www.w3.org/1999/xlink" x="0px" y="0px"
	 viewBox="0 0 100 100" style="enable-background:new 0 0 100 100;" xml:space="preserve">
<title>icon_cal</title>
<path d="M94.9,16.5h-9.7V13c0-7.2-5.8-13-13-13c-7.2,0-13,5.8-13,13c0,0,0,0,0,0v3.6H40.8V13c0-7.2-5.8-13-13-13
	c-7.2,0-13,5.8-13,13c0,0,0,0,0,0v3.6H5.1c-2.6,0-4.6,2.1-4.6,4.6v74.2c0,2.6,2.1,4.6,4.6,4.6h89.8c2.6,0,4.6-2.1,4.6-4.6V21.2
	C99.5,18.6,97.5,16.5,94.9,16.5z M67.1,11.7c0-2.8,2.3-5.1,5.1-5.1c2.8,0,5.1,2.3,5.1,5.1v4.9H67.1V11.7z M22.9,11.9
	c0-2.7,2.2-4.8,4.8-4.8c2.7,0,4.8,2.2,4.8,4.8v4.6h-9.8L22.9,11.9z M92.8,92.5H7.2V24h85.6L92.8,92.5z"/>
<circle cx="26.2" cy="41.2" r="4.8"/>
<circle cx="50" cy="41.2" r="4.8"/>
<circle cx="73.8" cy="41.2" r="4.8"/>
<circle cx="26.2" cy="58.6" r="4.8"/>
<circle cx="50" cy="58.6" r="4.8"/>
<circle cx="73.8" cy="58.6" r="4.8"/>
<circle cx="26.2" cy="76" r="4.8"/>
<circle cx="50" cy="76" r="4.8"/>
<circle cx="73.8" cy="76" r="4.8"/>
</svg>
