<?xml version="1.0" encoding="utf-8"?>
<!-- Generator: Adobe Illustrator 21.0.1, SVG Export Plug-In . SVG Version: 6.00 Build 0)  -->
<svg version="1.1" id="Layer_1" xmlns="http://www.w3.org/2000/svg" xmlns:xlink="http://www.w3.org/1999/xlink" x="0px" y="0px"
	 viewBox="0 0 78.1 78.1" style="enable-background:new 0 0 78.1 78.1;" xml:space="preserve">
<title>icon_rewind</title>
<path d="M66.6,11.4C59.3,4.1,49.5,0,39,0C28.6,0,18.8,4.1,11.4,11.4S0,28.6,0,39s4.1,20.2,11.4,27.6C18.8,74,28.6,78.1,39,78.1
	S59.2,74,66.6,66.7C74,59.3,78.1,49.5,78.1,39C78.1,28.6,74,18.8,66.6,11.4z M73.9,39c0,19.2-15.7,34.9-34.9,34.9
	c-9.3,0-18.1-3.6-24.7-10.2C7.8,57.1,4.2,48.3,4.2,39c0-19.2,15.7-34.9,34.9-34.9l0,0C58.3,4.2,73.9,19.8,73.9,39z"/>
<path d="M51.9,59.7c-0.7,0-1.4-0.3-2-0.8L29.7,41.4c-1.3-1.1-1.6-3.2-0.4-4.6c0.1-0.2,0.3-0.3,0.5-0.5l20.1-17.2
	c0.9-0.8,2.1-1,3.2-0.5c1,0.5,1.7,1.5,1.7,2.8v35.3c0,1.2-0.6,2.3-1.7,2.8C52.7,59.6,52.3,59.7,51.9,59.7z M34.5,38.9l15.2,13.2
	V25.9L34.5,38.9z M33,40.2L33,40.2L33,40.2z M33,37.6L33,37.6L33,37.6z"/>
<path d="M26.6,20.9c-1.1,0-2,0.9-2,2v32.2c0,1.1,0.9,2,2.1,2c0.5,0,1-0.2,1.4-0.6c0.4-0.4,0.6-0.9,0.6-1.4V22.9
	C28.7,21.8,27.7,20.9,26.6,20.9z"/>
</svg>
