<?xml version="1.0" encoding="utf-8"?>
<!-- Generator: Adobe Illustrator 20.1.0, SVG Export Plug-In . SVG Version: 6.00 Build 0)  -->
<svg version="1.1" id="Layer_1" xmlns="http://www.w3.org/2000/svg" xmlns:xlink="http://www.w3.org/1999/xlink" x="0px" y="0px"
	 viewBox="0 0 127.6 127.6" style="enable-background:new 0 0 127.6 127.6;" xml:space="preserve">
<style type="text/css">
	.st0{fill:none;}
</style>
<rect y="0" class="st0" width="127.6" height="127.6"/>
<path d="M63.8,0C28.6,0,0,28.6,0,63.8c0,35.2,28.6,63.8,63.8,63.8s63.8-28.6,63.8-63.8C127.6,28.6,98.9,0,63.8,0 M96.2,35.5
	L58.4,90.2c-0.4,0.6-1.1,1-1.8,1.2c-0.7,0.1-1.5,0-2.1-0.5L32.1,74.5c-1.3-0.9-1.6-2.7-0.7-3.9c0.9-1.2,2.7-1.6,3.9-0.7l20.1,14.7
	l36.2-52.4c0.9-1.2,2.7-1.6,3.9-0.7C96.8,32.5,97.1,34.2,96.2,35.5"/>
</svg>
