<?xml version="1.0" encoding="utf-8"?>
<!-- Generator: Adobe Illustrator 20.1.0, SVG Export Plug-In . SVG Version: 6.00 Build 0)  -->
<svg version="1.1" id="Layer_1" xmlns="http://www.w3.org/2000/svg" xmlns:xlink="http://www.w3.org/1999/xlink" x="0px" y="0px"
	 viewBox="0 0 82 82" style="enable-background:new 0 0 82 82;" xml:space="preserve">
<style type="text/css">
	.st0{fill:none;}
</style>
<title>icon-close</title>
<path d="M71.7,40.8c0-1.2-1-2.1-2.1-2.1H43V12.1c0-1.2-1-2.1-2.2-2.1c-1.1,0-2,0.9-2.1,2.1v26.6H12.1c-1.2,0-2.1,1-2.1,2.1
	c0,0.6,0.2,1.1,0.6,1.5c0.4,0.4,0.9,0.6,1.5,0.6h26.6v26.6c0,0.6,0.2,1.1,0.6,1.5c0.4,0.4,0.9,0.6,1.5,0.6c1.2,0,2.1-1,2.1-2.1V43
	h26.6C70.7,43,71.7,42,71.7,40.8z"/>
<rect class="st0" width="82" height="82"/>
</svg>
