<?xml version="1.0" encoding="utf-8"?>
<!-- Generator: Adobe Illustrator 20.0.0, SVG Export Plug-In . SVG Version: 6.00 Build 0)  -->
<svg version="1.1" id="Grey" xmlns="http://www.w3.org/2000/svg" xmlns:xlink="http://www.w3.org/1999/xlink" x="0px" y="0px"
	 viewBox="0 0 127.6 127.6" style="enable-background:new 0 0 127.6 127.6;" xml:space="preserve">
<title>icon_remove</title>
<path d="M63.8,0C28.6,0,0,28.6,0,63.8s28.6,63.8,63.8,63.8s63.7-28.6,63.8-63.8C127.6,28.6,99,0,63.8,0z M63.8,121.5
	c-31.9,0-57.7-25.8-57.7-57.7S31.9,6.1,63.8,6.1s57.7,25.9,57.7,57.7l0,0C121.5,95.7,95.7,121.5,63.8,121.5z"/>
<path d="M68.7,64l16.8-16.8c1.4-1.4,1.4-3.6,0-4.9c-1.4-1.4-3.6-1.4-5,0L63.8,59L47,42.2c-1.4-1.4-3.6-1.4-4.9,0
	c-1.4,1.4-1.4,3.6,0,4.9L58.8,64L42,80.8c-1.4,1.4-1.4,3.6,0,5c0.7,0.7,1.6,1,2.5,1s1.8-0.3,2.5-1L63.8,69l16.8,16.8
	c0.7,0.7,1.6,1,2.5,1s1.8-0.3,2.5-1c1.4-1.4,1.4-3.6,0-5L68.7,64z"/>
</svg>
