<?xml version="1.0" encoding="utf-8"?>
<!-- Generator: Adobe Illustrator 20.1.0, SVG Export Plug-In . SVG Version: 6.00 Build 0)  -->
<svg version="1.1" id="Layer_1" xmlns="http://www.w3.org/2000/svg" xmlns:xlink="http://www.w3.org/1999/xlink" x="0px" y="0px"
	 viewBox="0 0 76.7 76.7" style="enable-background:new 0 0 76.7 76.7;" xml:space="preserve">

<title>icon_image</title>
<rect class="st0" fill="none" width="76.7" height="76.7"/>
<path d="M71.9,9.8H4.8C2.1,9.8,0,11.9,0,14.5v47.9c0,2.7,2.1,4.8,4.8,4.8h0h67.1c2.7,0,4.8-2.1,4.8-4.8v0V14.5
	C76.7,11.9,74.6,9.8,71.9,9.8L71.9,9.8z M71.9,62.6H4.8v-48h67.1V62.6z"/>
<path d="M20.6,25.2c2.4,0,4.4,1.9,4.4,4.3c0,0,0,0,0,0.1c0,2.4-2,4.4-4.4,4.4c-2.4,0-4.4-1.9-4.4-4.3c0,0,0,0,0-0.1
	C16.2,27.2,18.2,25.3,20.6,25.2 M20.6,20.8c-4.9,0-8.9,4-8.9,8.9s4,8.9,8.9,8.9s8.9-4,8.9-8.9C29.5,24.7,25.5,20.8,20.6,20.8z"/>
<path d="M18.4,56.2c-1.2,0-2.2-1-2.2-2.3c0-0.6,0.2-1.1,0.6-1.5l13.3-13.3c0.7-0.7,1.7-0.8,2.6-0.4l7.2,3.6L52.1,26
	c0.4-0.6,1.1-0.9,1.8-0.9c0.7,0,1.4,0.4,1.8,1l8.9,13.4c0.7,1,0.4,2.4-0.6,3.1s-2.4,0.4-3.1-0.6l0,0l-7.1-10.7L42.4,46.6
	c-0.7,0.9-1.8,1.2-2.8,0.7l-7.4-3.7L20,55.7C19.6,56,19,56.2,18.4,56.2z"/>
</svg>
