<?xml version="1.0" encoding="utf-8"?>
<!-- Generator: Adobe Illustrator 21.0.1, SVG Export Plug-In . SVG Version: 6.00 Build 0)  -->
<svg version="1.1" id="Layer_1" xmlns="http://www.w3.org/2000/svg" xmlns:xlink="http://www.w3.org/1999/xlink" x="0px" y="0px"
	 viewBox="0 0 126.2 126.2" style="enable-background:new 0 0 126.2 126.2;" xml:space="preserve">
<title>icon_expand</title>
<path d="M63.1,126.2C28.3,126.2,0,97.9,0,63.1S28.3,0,63.1,0s63.1,28.3,63.1,63.1S97.9,126.2,63.1,126.2z M63.1,5
	C31.1,5,5,31.1,5,63.1s26.1,58.1,58.1,58.1s58.1-26.1,58.1-58.1S95.1,5,63.1,5z"/>
<path d="M93.6,41.9h-6.4v-2.3c0-4.8-3.8-8.6-8.6-8.6c-4.8,0-8.6,3.8-8.6,8.6l0,0V42H57.9v-2.4c0-4.8-3.8-8.6-8.6-8.6
	s-8.6,3.8-8.6,8.6l0,0V42h-6.4c-1.7,0-3,1.4-3,3v49c0,1.7,1.4,3,3,3h59.3c1.7,0,3-1.4,3-3V45C96.7,43.3,95.3,41.9,93.6,41.9z
	 M75.3,38.7c0-1.8,1.5-3.4,3.4-3.4c1.8,0,3.4,1.5,3.4,3.4V42h-6.7V38.7z M46.1,38.9c0-1.8,1.5-3.2,3.2-3.2c1.8,0,3.2,1.5,3.2,3.2v3
	H46L46.1,38.9z M92.2,92H35.8V46.8h56.5V92z"/>
<circle cx="48.3" cy="58.2" r="3.2"/>
<circle cx="64" cy="58.2" r="3.2"/>
<circle cx="79.7" cy="58.2" r="3.2"/>
<circle cx="48.3" cy="69.7" r="3.2"/>
<circle cx="64" cy="69.7" r="3.2"/>
<circle cx="79.7" cy="69.7" r="3.2"/>
<circle cx="48.3" cy="81.2" r="3.2"/>
<circle cx="64" cy="81.2" r="3.2"/>
<circle cx="79.7" cy="81.2" r="3.2"/>
</svg>
