<svg id="Layer_1" data-name="Layer 1" xmlns="http://www.w3.org/2000/svg" viewBox="0 0 127.56 127.56"><title>icon_themes</title><path d="M63.78,0a63.78,63.78,0,1,0,63.78,63.78A63.85,63.85,0,0,0,63.78,0Zm0,121.94a58.16,58.16,0,1,1,58.17-58.16A58.23,58.23,0,0,1,63.78,121.94Z"/><path d="M96.8,32.11c-12.8,0-27.21,6.06-33,14.84-5.81-8.78-20.22-14.84-33-14.84a2.64,2.64,0,0,0-2.64,2.64V80.39A2.64,2.64,0,0,0,30.76,83c13.39,0,30.38,8.36,30.38,17.77a2.64,2.64,0,1,0,5.28,0c0-9.4,17-17.77,30.38-17.77a2.64,2.64,0,0,0,2.64-2.64V34.76A2.64,2.64,0,0,0,96.8,32.11ZM61.14,89.37C54.83,82.91,43.83,78.48,33.4,77.83V37.5c12.88,1,27.74,8.87,27.74,17.66Zm33-11.54c-10.43.65-21.43,5.08-27.74,11.54V55.16c0-8.79,14.86-16.68,27.74-17.66Z"/></svg>