<svg id="Layer_1" data-name="Layer 1" xmlns="http://www.w3.org/2000/svg" viewBox="0 0 127.56 127.56"><title>icon_industry</title><path d="M108.88,18.68a63.78,63.78,0,1,0-90.2,90.2,63.78,63.78,0,1,0,90.2-90.2ZM63.78,122A58.17,58.17,0,1,1,122,63.78,58.24,58.24,0,0,1,63.78,122Z"/><path d="M106.42,38.24a2.8,2.8,0,0,0-2.83.06L90.8,46.14V40.68a2.81,2.81,0,0,0-4.28-2.38L73.86,46.12V40.68a2.8,2.8,0,0,0-4.41-2.3l-14.25,10H22.54a2.8,2.8,0,0,0-2.8,2.8V86.94a2.8,2.8,0,0,0,2.8,2.8h82.51a2.8,2.8,0,0,0,2.8-2.8V40.68A2.8,2.8,0,0,0,106.42,38.24Zm-4.18,45.9H44.17V75.21a.8.8,0,0,0-.79-.8H33.84a.8.8,0,0,0-.8.8v8.93H25.34V54H56.08a2.8,2.8,0,0,0,1.61-.51l10.56-7.39v5.09a2.81,2.81,0,0,0,4.28,2.39L85.2,45.71v5.44a2.8,2.8,0,0,0,4.27,2.39l12.78-7.85Z"/><path d="M54.73,58.93h6.19a.79.79,0,0,1,.79.79v6.19a.79.79,0,0,1-.79.79H54.73a.8.8,0,0,1-.8-.8V59.72A.8.8,0,0,1,54.73,58.93Z"/><path d="M43.24,58.93h6.19a.79.79,0,0,1,.79.79v6.19a.8.8,0,0,1-.8.8H43.23a.79.79,0,0,1-.79-.79V59.72A.8.8,0,0,1,43.24,58.93Z"/><path d="M31.74,58.93h6.19a.79.79,0,0,1,.79.79v6.19a.8.8,0,0,1-.8.8H31.74a.79.79,0,0,1-.79-.79V59.72A.8.8,0,0,1,31.74,58.93Z"/><rect x="65.36" y="58.93" width="7.78" height="7.78" rx="0.8" ry="0.8"/><rect x="76.78" y="58.93" width="7.78" height="7.78" rx="0.8" ry="0.8"/><rect x="88.21" y="58.93" width="7.78" height="7.78" rx="0.8" ry="0.8"/><path d="M54.73,70.14h6.19a.79.79,0,0,1,.79.79v6.19a.8.8,0,0,1-.8.8H54.73a.8.8,0,0,1-.8-.8V70.94A.8.8,0,0,1,54.73,70.14Z"/><path d="M72.35,70.14H66.15a.8.8,0,0,0-.8.8v6.19a.8.8,0,0,0,.8.8h6.19a.8.8,0,0,0,.79-.8V70.94A.8.8,0,0,0,72.35,70.14Z"/><rect x="76.78" y="70.14" width="7.78" height="7.78" rx="0.8" ry="0.8"/><rect x="88.21" y="70.14" width="7.78" height="7.78" rx="0.8" ry="0.8"/></svg>