<?xml version="1.0" encoding="utf-8"?>
<!-- Generator: Adobe Illustrator 20.0.0, SVG Export Plug-In . SVG Version: 6.00 Build 0)  -->
<svg version="1.1" id="Layer_1" xmlns="http://www.w3.org/2000/svg" xmlns:xlink="http://www.w3.org/1999/xlink" x="0px" y="0px"
	 viewBox="0 0 127.6 127.6" style="enable-background:new 0 0 127.6 127.6;" xml:space="preserve">
<title>icon_partnershiphub</title>
<path d="M108.9,18.7C84-6.2,43.7-6.2,18.8,18.6c0,0,0,0-0.1,0.1c-24.9,24.9-24.9,65.2-0.1,90.1c0,0,0,0,0.1,0.1
	c24.9,24.9,65.3,24.9,90.2,0S133.8,43.6,108.9,18.7C108.9,18.7,108.9,18.7,108.9,18.7z M63.8,122C31.7,122,5.6,95.9,5.6,63.8
	S31.7,5.6,63.8,5.6S122,31.7,122,63.8C122,95.9,95.9,122,63.8,122z"/>
<path d="M39.7,48.6L23.9,36.1l1.9-2.4C35,22.1,49,15.3,63.8,15.3c9.5,0,18.8,2.8,26.7,8L93,25L81.9,41.8l-2.5-1.7
	c-12.3-8.1-28.7-5.5-37.8,6.1L39.7,48.6z M32.4,35.2l6.4,5c10.7-11.3,27.6-14.1,41.3-6.7l4.5-6.8c-6.3-3.6-13.5-5.4-20.8-5.4
	C51.9,21.4,40.5,26.4,32.4,35.2z"/>
<path d="M99.5,96.7L83.9,84l1.9-2.3c6.2-7.7,8-18,4.8-27.3l-1-2.8l18.9-6.7l1,2.8c5.5,15.7,2.6,33.1-7.7,46.1
	c-0.1,0.2-0.3,0.4-0.5,0.6L99.5,96.7z M92.2,83l6.3,5.1c4.2-5.9,6.7-12.8,7.5-20c0.6-5.2,0.1-10.5-1.3-15.6L97,55.2
	c1,4,1.3,8,0.9,12.1C97.4,72.9,95.4,78.3,92.2,83z"/>
<path d="M66.8,112.2h-3c-26.7,0-48.4-21.7-48.4-48.4v-3h20.1v3c0,15.6,12.7,28.3,28.3,28.3h3V112.2z M21.5,66.8
	c1.5,21,18.3,37.8,39.3,39.3V98c-16.6-1.5-29.7-14.6-31.2-31.2H21.5z"/>
</svg>
