<?xml version="1.0" encoding="utf-8"?>
<!-- Generator: Adobe Illustrator 20.0.0, SVG Export Plug-In . SVG Version: 6.00 Build 0)  -->
<svg version="1.1" id="Layer_1" xmlns="http://www.w3.org/2000/svg" xmlns:xlink="http://www.w3.org/1999/xlink" x="0px" y="0px"
	 viewBox="0 0 127.5 127.6" style="enable-background:new 0 0 127.5 127.6;" xml:space="preserve">
<title>icon_receptionwall</title>
<path d="M122.7,39.4c-0.8-2.1-1.8-4.1-2.9-6c-3-5.4-6.7-10.3-11-14.7C84-6.2,43.7-6.2,18.8,18.6c0,0-0.1,0.1-0.1,0.1
	c-24.9,24.9-24.9,65.2-0.1,90.1c0,0,0,0,0.1,0.1c24.9,24.9,65.3,24.9,90.2,0c8.3-8.3,14.2-18.8,16.9-30.2c0.5-2,0.8-4,1.1-6
	c0.4-2.9,0.6-5.9,0.6-8.9C127.6,55.4,126,47.1,122.7,39.4z M5.6,63.8c0-32.1,26-58.2,58.2-58.2c20.3,0,39.1,10.5,49.6,27.8H20.8
	c-1.7,0-3,1.3-3,3v39.3c0,1.7,1.3,3,3,3h9.5c-0.4,1.8-0.7,3.6-0.9,5.4H9.3C6.8,77.6,5.6,70.7,5.6,63.8z M105.7,104
	c-22.3,23.2-59.1,23.9-82.3,1.7c-4.7-4.5-8.7-9.8-11.6-15.7h93.8L105.7,104L105.7,104z M48.7,71.2c2.4-0.1,4.8,0.4,6.9,1.5
	c2.4,1.3,4.2,3.4,5,6c0.6,1.7,1,3.4,1.1,5.2H35.6c0.2-1.8,0.5-3.5,1.1-5.2c0.8-2.6,2.6-4.7,5-6C43.9,71.7,46.3,71.1,48.7,71.2z
	 M43,59.2c0-3.2,2.6-5.8,5.8-5.8c3.2,0,5.8,2.6,5.8,5.8c0,3.2-2.6,5.8-5.8,5.8c0,0,0,0,0,0C45.6,65,43,62.4,43,59.2z M111.7,96.7
	v-9.6c0-1.7-1.3-3-3-3H68.1c-0.1-1.8-0.4-3.6-0.9-5.4H120C118.3,85.1,115.5,91.2,111.7,96.7z M121.3,72.7H64.6
	c-1.7-2.5-4-4.5-6.7-5.8c1.8-2.1,2.8-4.9,2.8-7.7c0-6.6-5.4-12-12-12c-6.6,0-12,5.4-12,12c0,2.8,1,5.5,2.8,7.7
	c-2.7,1.3-5.1,3.3-6.7,5.8h-9.1V39.4h92.7c3.6,7.6,5.4,16,5.4,24.4C121.9,66.8,121.8,69.8,121.3,72.7z"/>
</svg>
