<?xml version="1.0" encoding="utf-8"?>
<!-- Generator: Adobe Illustrator 21.0.0, SVG Export Plug-In . SVG Version: 6.00 Build 0)  -->
<svg version="1.1" id="Layer_1" xmlns="http://www.w3.org/2000/svg" xmlns:xlink="http://www.w3.org/1999/xlink" x="0px" y="0px"
	 viewBox="0 0 74.8 75.5" style="enable-background:new 0 0 74.8 75.5;" xml:space="preserve">
<g>
	<path id="SVGID_1_" d="M66,2c-1.6,0-2.9,1.3-2.9,2.9l0,0v3H58V4.8c0-1.6-1.3-2.9-2.9-2.9s-2.9,1.3-2.9,2.9v3.1H22.4V4.7
		c-0.1-1.6-1.4-2.8-3-2.7c-1.4,0.1-2.6,1.2-2.7,2.7v3.2h-5.1V4.7c-0.1-1.6-1.4-2.8-3-2.7C7.1,2.1,6,3.3,5.9,4.7v66
		c-0.1,1.6,1.1,2.9,2.7,3s2.9-1.1,3-2.7c0-0.1,0-0.2,0-0.3v-3.1h5.1v3.1c-0.1,1.6,1.1,2.9,2.7,3s2.9-1.1,3-2.7c0-0.1,0-0.2,0-0.3
		v-3.1h29.9v3.1c0,1.6,1.3,2.9,2.9,2.9s2.9-1.3,2.9-2.9v-3.1h5.1v3.1c0,1.6,1.3,2.8,2.9,2.8c1.6,0,2.8-1.3,2.8-2.8v-66
		C68.9,3.2,67.6,2,66,2z M52.4,35.2h-30V13.6h29.9L52.4,35.2L52.4,35.2z M11.6,13.6h5.1v5h-5.1V13.6z M11.6,24.4h5.1v5h-5.1V24.4z
		 M16.7,35.1v5.1h-5.1v-5.1H16.7z M11.6,46h5.1v5.1h-5.1V46z M11.6,61.9v-5.1h5.1v5.1H11.6z M22.4,40.3h29.9v21.6H22.4V40.3z
		 M63.2,62h-5.1v-5.1h5.1V62z M63.2,51.1h-5.1V46h5.1V51.1z M63.2,40.3h-5.1v-5.1h5.1V40.3z M63.2,29.5h-5.1v-5h5.1V29.5z
		 M63.2,18.7h-5.1v-5h5.1V18.7z"/>
</g>
</svg>
