<?xml version="1.0" encoding="utf-8"?>
<!-- Generator: Adobe Illustrator 21.1.0, SVG Export Plug-In . SVG Version: 6.00 Build 0)  -->
<svg version="1.1" id="Layer_1" xmlns="http://www.w3.org/2000/svg" xmlns:xlink="http://www.w3.org/1999/xlink" x="0px" y="0px"
	 viewBox="0 0 86 86" style="enable-background:new 0 0 86 86;" xml:space="preserve">
<title>Expo 1 centre</title>
<desc>Created with Sketch.</desc>
<g>
	<polygon points="42.3,22.3 45,22.3 45,7.4 42.7,7.4 39,10 39,12.9 42.3,10.6 	"/>
	<path d="M68.8,26.3H18.2c-2.2,0-4.1,1.8-4.1,4.1v11.1c0,2.2,1.8,4.1,4.1,4.1h50.6c2.2,0,4.1-1.8,4.1-4.1V30.4
		C72.8,28.1,71,26.3,68.8,26.3z M28.2,42.8h-10c-0.7,0-1.3-0.6-1.3-1.3V30.4c0-0.7,0.6-1.3,1.3-1.3h10V42.8z M42.2,42.8h-0.1H30.9
		V29h11.3V42.8z M56.1,42.8H44.8V29h11.3V42.8z M70.1,41.5c0,0.7-0.6,1.3-1.3,1.3h-10V29h10c0.7,0,1.3,0.6,1.3,1.3V41.5z"/>
	<path d="M73.4,12.6C65.3,4.5,54.5,0,43,0S20.7,4.5,12.6,12.6C4.5,20.7,0,31.5,0,43s4.5,22.3,12.6,30.4C20.7,81.5,31.5,86,43,86
		s22.3-4.5,30.4-12.6C81.5,65.3,86,54.5,86,43S81.5,20.7,73.4,12.6z M43,82.2c-4.2,0-8.2-0.7-12-1.9c0.2-6.9,5.9-12.5,12.9-12.5
		c6.8,0,12.3,5.2,12.8,11.8C52.5,81.3,47.8,82.2,43,82.2z M38.2,59.2c0-3.1,2.6-5.7,5.7-5.7c3.1,0,5.7,2.6,5.7,5.7
		c0,3.1-2.6,5.7-5.7,5.7C40.8,64.9,38.2,62.3,38.2,59.2z M59.6,78.5c-0.8-5.8-4.8-10.6-10.2-12.6c1.9-1.6,3.2-4,3.2-6.7
		c0-4.8-3.9-8.7-8.7-8.7c-4.8,0-8.7,3.9-8.7,8.7c0,2.7,1.2,5.1,3.2,6.7C32.7,68,28.6,73.1,28,79.3C13.8,73.4,3.8,59.3,3.8,43
		C3.8,21.4,21.4,3.8,43,3.8S82.2,21.4,82.2,43C82.2,58.7,73,72.2,59.6,78.5z"/>
</g>
</svg>
