<?xml version="1.0" encoding="utf-8"?>
<!-- Generator: Adobe Illustrator 21.1.0, SVG Export Plug-In . SVG Version: 6.00 Build 0)  -->
<svg version="1.1" id="Layer_1" xmlns="http://www.w3.org/2000/svg" xmlns:xlink="http://www.w3.org/1999/xlink" x="0px" y="0px"
	 viewBox="0 0 86 86" style="enable-background:new 0 0 86 86;" xml:space="preserve">
<title>Expo 2 centre</title>
<desc>Created with Sketch.</desc>
<g>
	<path d="M72.6,13.4C64.6,5.4,53.9,1,42.5,1s-22,4.4-30.1,12.5C4.4,21.4,0,32.1,0,43.5c0,11.4,4.4,22,12.5,30.1
		c8,8,18.7,12.5,30.1,12.5c11.4,0,22-4.4,30.1-12.5c8-8,12.5-18.7,12.5-30.1C85,32.1,80.6,21.4,72.6,13.4z M42.5,82.3
		c-4.1,0-8.1-0.7-11.8-1.9c0.2-6.8,5.8-12.3,12.7-12.3c6.7,0,12.2,5.2,12.7,11.7C51.9,81.4,47.3,82.3,42.5,82.3z M37.8,59.5
		c0-3.1,2.5-5.6,5.6-5.6c3.1,0,5.6,2.5,5.6,5.6c0,3.1-2.5,5.6-5.6,5.6C40.3,65.1,37.8,62.6,37.8,59.5z M59,78.6
		c-0.8-5.8-4.8-10.5-10.1-12.5c1.9-1.6,3.1-4,3.1-6.6c0-4.8-3.9-8.6-8.6-8.6c-4.7,0-8.6,3.9-8.6,8.6c0,2.7,1.2,5.1,3.1,6.6
		c-5.5,2.1-9.6,7.1-10.2,13.2c-14.1-5.8-24-19.7-24-35.8c0-21.4,17.4-38.8,38.8-38.8s38.8,17.4,38.8,38.8C81.3,59,72.2,72.4,59,78.6
		z"/>
	<path d="M68,27H18c-2.2,0-4,1.8-4,4v11c0,2.2,1.8,4,4,4h50c2.2,0,4-1.8,4-4V31C72,28.8,70.2,27,68,27z M27.8,43.4H18
		c-0.7-0.1-1.3-0.7-1.3-1.4V31c0-0.7,0.6-1.3,1.3-1.3h9.8V43.4z M30.5,43.3V29.7h11.1v13.6H30.5z M55.4,43.4H44.3V29.7h11.1V43.4z
		 M69.3,42c0,0.7-0.6,1.3-1.3,1.3h-9.8V29.7H68c0.7,0,1.3,0.6,1.3,1.3V42z"/>
	<path d="M42.3,10.7c1.2,0,1.8,0.8,1.8,1.8c0,0.6-0.3,1.3-0.7,1.8L37.7,21v2.1H47v-2.3h-5.8l4-4.8c0.8-1,1.6-2.2,1.6-3.5
		c0-2.5-2-4-4.4-4c-3,0-4.6,1.8-4.6,4.3h2.7C40.4,11.6,41.1,10.7,42.3,10.7z"/>
</g>
</svg>
