<svg id="Grey" xmlns="http://www.w3.org/2000/svg" viewBox="0 0 127.56 127.56"><title>icon_upload</title><path d="M346.74-176.17a63.37,63.37,0,0,0-45.1-18.68,63.37,63.37,0,0,0-45.1,18.68,63.37,63.37,0,0,0-18.68,45.1A63.37,63.37,0,0,0,256.54-86a63.36,63.36,0,0,0,45.1,18.68A63.36,63.36,0,0,0,346.74-86a63.35,63.35,0,0,0,18.68-45.1A63.36,63.36,0,0,0,346.74-176.17Zm-6.9,47.9H304.44v35.39a2.8,2.8,0,0,1-2.8,2.8,2.79,2.79,0,0,1-2-.82,2.77,2.77,0,0,1-.82-2v-35.39H263.45a2.79,2.79,0,0,1-2-.82,2.79,2.79,0,0,1-.82-2,2.8,2.8,0,0,1,2.8-2.8h35.39v-35.39a2.81,2.81,0,0,1,2.8-2.8,2.81,2.81,0,0,1,2.8,2.8v35.39h35.39a2.8,2.8,0,0,1,2.8,2.8A2.81,2.81,0,0,1,339.83-128.27Z" transform="translate(-237.86 194.85)"/></svg>