<?xml version="1.0" encoding="utf-8"?>
<!-- Generator: Adobe Illustrator 20.1.0, SVG Export Plug-In . SVG Version: 6.00 Build 0)  -->
<svg version="1.1" id="Layer_1" xmlns="http://www.w3.org/2000/svg" xmlns:xlink="http://www.w3.org/1999/xlink" x="0px" y="0px"
	 viewBox="0 0 78.6 78.4" style="enable-background:new 0 0 78.6 78.4;" xml:space="preserve">
<style type="text/css">
	.st0{fill:none;}
</style>
<title>icon_playlist</title>
<g>
	<rect class="st0" width="78.4" height="78.4"/>
	<g>
		<defs>
			<rect id="SVGID_1_" y="0.7" width="78.6" height="78.6"/>
		</defs>
		<clipPath id="SVGID_2_">
			<use xlink:href="#SVGID_1_"  style="overflow:visible;"/>
		</clipPath>
		<path class="st1" d="M33.9,26.1h12.7c1.5,0,2.8-1.3,2.8-2.8s-1.3-2.8-2.8-2.8H33.9c-1.5,0-2.8,1.3-2.8,2.8S32.3,26.1,33.9,26.1z"
			/>
	</g>
	<g>
		<defs>
			<rect id="SVGID_3_" y="0.7" width="78.6" height="78.6"/>
		</defs>
		<clipPath id="SVGID_4_">
			<use xlink:href="#SVGID_3_"  style="overflow:visible;"/>
		</clipPath>
		<path class="st2" d="M65.1,32.2v-26c0-1.5-1.3-2.8-2.8-2.8H21.5L0,24.9v37.8c0,1.5,1.3,2.7,2.8,2.7H38c7,10.1,20.9,12.7,31.1,5.7
			c10.1-7,12.7-20.9,5.7-31.1C72.3,36.6,69,33.8,65.1,32.2z M35.1,59.8H5.6V30H21c3.1,0,5.6-2.5,5.6-5.5l0,0V9h33v21.6l-0.9-0.1
			h-0.3l-0.8-0.1h-0.3h-1c-3.8,0-7.5,0.9-10.8,2.8H18.3c-1.5,0-2.8,1.3-2.8,2.8s1.3,2.8,2.8,2.8h20.6c-0.3,0.4-0.6,0.8-0.9,1.2
			c-1.2,1.8-2.2,3.7-2.9,5.8H18.3c-1.5,0-2.8,1.3-2.8,2.8s1.3,2.8,2.8,2.8H34c0,0.4,0,0.9,0,1.3l0,0c0,0.3,0,0.7,0,1
			c0,0.1,0,0.2,0,0.4s0,0.4,0,0.7s0,0.3,0,0.5s0,0.4,0.1,0.5s0,0.3,0.1,0.5s0.1,0.3,0.1,0.5s0.1,0.6,0.2,0.9s0.1,0.3,0.1,0.5
			s0.1,0.3,0.1,0.5s0.1,0.3,0.1,0.5l0.2,0.5L35.1,59.8z M56.3,69.4c-6.4,0-12.3-3.7-15-9.5l0,0c-0.2-0.5-0.4-0.9-0.6-1.4l-0.1-0.1
			c-0.1-0.2-0.1-0.4-0.2-0.6l-0.1-0.2c-0.1-0.2-0.1-0.4-0.2-0.6L40,56.7c0-0.2-0.1-0.3-0.1-0.5l-0.1-0.3c0-0.2-0.1-0.4-0.1-0.6
			s0-0.2,0-0.3s0-0.4-0.1-0.6s0-0.1,0-0.2c0-0.2,0-0.5,0-0.7c0-0.1,0-0.1,0-0.2c0-0.2,0-0.5,0-0.8s0-0.2,0-0.3s0-0.3,0-0.5
			c0.1-1.9,0.5-3.8,1.3-5.6l0,0l0.1-0.2c2.7-6.1,8.7-10,15.3-10h0.8h0.2h0.5h0.3l0.5,0.1H59l0.7,0.1l0.3,0.1l0.4,0.1l0.3,0.1
			l0.4,0.1l0.3,0.1c8.8,2.7,13.9,12,11.2,20.8C70.5,64.7,63.8,69.6,56.3,69.4z"/>
	</g>
	<g>
		<defs>
			<rect id="SVGID_5_" y="0.7" width="78.6" height="78.6"/>
		</defs>
		<clipPath id="SVGID_6_">
			<use xlink:href="#SVGID_5_"  style="overflow:visible;"/>
		</clipPath>
		<path class="st3" d="M63.3,44.5L52.8,54.8l-3.6-3.2c-1.2-1-2.9-0.9-4,0.2c-1,1.2-0.9,2.9,0.2,4l5.5,4.9c1.1,1,2.8,0.9,3.8-0.1
			l12.4-12.2c1.1-1.1,1.1-2.9,0-4C66.2,43.4,64.4,43.4,63.3,44.5L63.3,44.5z"/>
	</g>
</g>
</svg>
