<svg id="Layer_1" data-name="Layer 1" xmlns="http://www.w3.org/2000/svg" viewBox="0 0 127.56 127.56"><defs><style>.cls-1{stroke:#000;stroke-miterlimit:10;}</style></defs><title>icon_play</title><path class="cls-1" d="M81.47,95.12a2.71,2.71,0,0,1-2.69,2.72h0a2.71,2.71,0,0,1-2.69-2.72V38a2.71,2.71,0,0,1,2.69-2.72h0A2.71,2.71,0,0,1,81.47,38Z"/><path class="cls-1" d="M92,95.12a2.71,2.71,0,0,1-2.69,2.72h0a2.71,2.71,0,0,1-2.69-2.72V38a2.71,2.71,0,0,1,2.69-2.72h0A2.71,2.71,0,0,1,92,38Z"/><path d="M63.78,127.56a63.78,63.78,0,1,1,63.78-63.78A63.85,63.85,0,0,1,63.78,127.56Zm0-121.48a57.71,57.71,0,1,0,57.71,57.71A57.77,57.77,0,0,0,63.78,6.07Z"/><path d="M40.69,97.85a3.15,3.15,0,0,1-3.15-3.15V38.06a3.15,3.15,0,0,1,5.37-2.22L71.23,64.16a3.15,3.15,0,0,1,0,4.45L42.92,96.92A3.14,3.14,0,0,1,40.69,97.85Zm1.85-7.62L66.38,66.38,42.55,42.54Z"/></svg>