<?xml version="1.0" encoding="utf-8"?>
<!-- Generator: Adobe Illustrator 20.0.0, SVG Export Plug-In . SVG Version: 6.00 Build 0)  -->
<svg version="1.1" id="Layer_1" xmlns="http://www.w3.org/2000/svg" xmlns:xlink="http://www.w3.org/1999/xlink" x="0px" y="0px"
	 viewBox="0 0 127.6 127.6" style="enable-background:new 0 0 127.6 127.6;" xml:space="preserve">
<title>icon_repeat</title>
<path d="M63.8,0C28.6,0,0,28.6,0,63.8c0,35.2,28.6,63.8,63.8,63.8c35.2,0,63.7-28.6,63.8-63.8C127.6,28.6,99,0,63.8,0z M63.8,121.5
	c-31.9,0-57.7-25.8-57.7-57.7c0-31.9,25.8-57.7,57.7-57.7v0c31.9,0,57.7,25.9,57.7,57.7C121.5,95.7,95.7,121.5,63.8,121.5z"/>
<path d="M87.6,37.2h-2.1v6h2.1c5.4,0,9.7,4.4,9.8,9.8v23c0,5.4-4.4,9.7-9.8,9.7H52.4H39.5c-5.2-0.2-9.3-4.5-9.3-9.7V53
	c0-5.4,4.4-9.7,9.7-9.8h27.5L64.6,46c-1.1,1.1-1.1,2.8-0.1,3.9c0,0,0.1,0.1,0.1,0.1c0.5,0.5,1.2,0.8,2,0.9c0.8,0,1.5-0.3,2-0.9
	l9.5-9.3l-9.3-10.1c-1.1-1.1-2.9-1.1-4,0.1c-1,1-1.1,2.6-0.2,3.7l2.6,2.9H40c-8.7,0-15.7,7.1-15.7,15.8v23c0,8.4,6.7,15.4,15.1,15.7
	h48.2c8.7,0,15.7-7,15.8-15.7V53C103.3,44.3,96.3,37.3,87.6,37.2z"/>
</svg>
